<?xml version="1.0" encoding="utf-8"?>
<!-- Generator: Adobe Illustrator 21.0.2, SVG Export Plug-In . SVG Version: 6.00 Build 0)  -->
<svg version="1.1" id="Layer_1" xmlns="http://www.w3.org/2000/svg" xmlns:xlink="http://www.w3.org/1999/xlink" x="0px" y="0px"
	 viewBox="0 0 40 40" style="enable-background:new 0 0 40 40;" xml:space="preserve">
<style type="text/css">
	.st0{fill:none;stroke:#585C5E;stroke-width:2;stroke-miterlimit:10;}
	.st1{fill:none;stroke:#69AA6F;stroke-width:2;stroke-miterlimit:10;}
</style>
<g>
	<path class="st0" d="M8.3,28.6c-3.1,0-5.6-2.5-5.6-5.6s2.5-5.6,5.6-5.6h1.1v11.1H8.3V28.6z"/>
	<path class="st0" d="M31.7,17.5c3.1,0,5.6,2.5,5.6,5.6s-2.5,5.6-5.6,5.6h-1.1V17.5H31.7z"/>
	<path class="st0" d="M9.4,19.2v-5c0,0,0-8.9,10.6-8.9s10.6,8.9,10.6,8.9v3.3"/>
	<polyline class="st1" points="30.6,28.6 30.6,31.4 22.2,34.7 17.8,34.7 17.8,32.5 22.2,32.5 22.2,34.2 	"/>
</g>
</svg>
